<svg version="1.1" id="Layer_1" xmlns="http://www.w3.org/2000/svg" xmlns:xlink="http://www.w3.org/1999/xlink" x="0px" y="0px"
	 width="144px" height="252px" viewBox="0 0 144 252" enable-background="new 0 0 144 252" xml:space="preserve">

<path class="path1" fill="none" stroke="#000000" stroke-width="4" stroke-miterlimit="5" d="M126.335,200.301c0,5.723-1.155,10.851-3.229,15.391
	c-2.071,4.538-5.062,8.481-8.729,11.836C111.527,230.134,97,198.5,95.12,210.556c-0.897,5.758-1.31,28.432-7.354,29.669
	c-6.071,1.244-25.611-36.311-28.532-31.621c-4.125,6.622-5.687,31.261-12.638,28.611c-7.198-2.741-11.691-23.923-16.559-29.149
	c-2.288-2.456-6.14,12.011-7.678,9.006c-2.491-4.869-3.897-10.462-3.897-16.771c0-1.939,0.178-3.956,0.088-6.037
	C16,135.5,24,10,72.399,14.068C109.462,17.183,126.335,145.02,126.335,200.301z"/>
<path class="path1" fill="none" stroke="#000000" stroke-width="4" stroke-miterlimit="5" d="M42.793,58.083c-2.028,6.73,0.05,13.042,4.641,14.096
	c4.592,1.055,9.958-3.546,11.986-10.276c2.027-6.729-0.051-13.041-4.643-14.096C50.187,46.752,44.821,51.353,42.793,58.083z"/>
<path class="path1" fill="none" stroke="#000000" stroke-width="4" stroke-miterlimit="5" d="M87.508,58.083c2.029,6.73-0.049,13.042-4.641,14.096
	c-4.592,1.055-9.958-3.546-11.985-10.276c-2.028-6.729,0.051-13.041,4.641-14.096C80.115,46.752,85.481,51.353,87.508,58.083z"/>

</svg>
