<svg version="1.1" id="Layer_1" xmlns="http://www.w3.org/2000/svg" xmlns:xlink="http://www.w3.org/1999/xlink" x="0px" y="0px"
	 width="288px" height="72px" viewBox="0 0 288 72" enable-background="new 0 0 288 72" xml:space="preserve">

<path class="roxy" fill="none" stroke="#000000" stroke-width="5" stroke-miterlimit="5" d="M5.961,67.247C6.024,47.397,13.51,13.659,35.79,8.725
	c11.019-2.44,30.27-2.303,21.085,13.36c-6.937,11.83-30.148,13.312-42.1,11.745c0.077-0.147,3.566-9,3.409-9.094
	c15.963-2.102,22.341,30.726,36.896,34.14c21.309,4.997,24.297-38.8,52.475-31.826c-12.251,3.189-24.259-1.12-27.663,16.776
	c-3.454,18.159,10.594,20.239,24.502,17.854c14.359-2.464,35.356-19.991,14.467-31.849c-10.451-5.933-17.459,5.978-8.347,10.475
	c8.386,4.138,30.32-9.904,38.578-12.295c8.185,7.406,21.183,19.063,32.851,22.036c19.085,4.863,27.39-10.916,33.503-25.955
	c0.992-0.086,3.34,0.049,4.431,0.348c-3.244,38.762,59.455,25.395,42.179-3.925c-11.224,12.653,1.772,34.059-18.866,41.682
	c-14.45,5.337-84.073,11.646-92.091-5.833c14.719-10.657,40.021-29.118,56.484-39.117"/>

</svg>
