<svg version="1.1" id="Layer_1" xmlns="http://www.w3.org/2000/svg" xmlns:xlink="http://www.w3.org/1999/xlink" x="0px" y="0px"
	 width="144px" height="252px" viewBox="0 0 144 252" enable-background="new 0 0 144 252" xml:space="preserve">
<defs>
  <style>
    #path2 {
      stoke-dasharray: 800;
      stroke-dashoffset: 0;
      -webkit-animation: dash 2 linear forwards;
      animation: dash 2 linear forwards;
    }

    @-webkit-keyframes dash {
      from {
        stroke-dashoffset: 800;
      }
      to {
        stroke-dashoffset: 0;
      }
    }
  </style>
</defs>

<g>
  <path id="path" fill="none" stroke="#000000" stroke-width="7" stroke-miterlimit="10" d="M126.335,199.301c0,5.723-1.155,10.851-3.229,15.391
  	c-2.071,4.538-5.062,8.481-8.729,11.836C111.527,229.134,97,197.5,95.12,209.556c-0.897,5.758-1.31,28.432-7.354,29.669
  	c-6.071,1.244-25.611-36.311-28.532-31.621c-4.125,6.622-5.687,31.261-12.638,28.611c-7.198-2.741-11.691-23.923-16.559-29.149
  	c-2.288-2.456-6.14,12.011-7.678,9.006c-2.491-4.869-3.897-10.462-3.897-16.771c0-1.939,0.178-3.956,0.088-6.037
  	C16,134.5,24,9,72.399,13.068C109.462,16.183,126.335,144.02,126.335,199.301z"/>
</g>

<g>
	<path id="path2" d="M53.436,46.656c-4.25,0-8.81,4.344-10.643,10.426c-2.028,6.73,0.05,13.042,4.641,14.096c0.441,0.102,0.89,0.15,1.342,0.15
		c4.251,0,8.811-4.343,10.645-10.426c2.027-6.729-0.051-13.041-4.643-14.096C54.337,46.706,53.888,46.656,53.436,46.656
		L53.436,46.656z"/>
</g>

<g>
	<path id="path3" d="M76.866,46.656c-0.452,0-0.901,0.049-1.343,0.151c-4.59,1.055-6.669,7.367-4.641,14.096
		c1.833,6.083,6.392,10.426,10.643,10.426c0.451,0,0.9-0.049,1.342-0.15c4.592-1.054,6.67-7.366,4.641-14.096
		C85.676,51,81.116,46.656,76.866,46.656L76.866,46.656z"/>
</g>

</svg>
